<?xml version="1.0" encoding="UTF-8" standalone="no"?>
<!-- Creator: CorelDRAW -->

<svg
   xmlns:dc="http://purl.org/dc/elements/1.1/"
   xmlns:cc="http://creativecommons.org/ns#"
   xmlns:rdf="http://www.w3.org/1999/02/22-rdf-syntax-ns#"
   xmlns:svg="http://www.w3.org/2000/svg"
   xmlns="http://www.w3.org/2000/svg"
   xmlns:sodipodi="http://sodipodi.sourceforge.net/DTD/sodipodi-0.dtd"
   xmlns:inkscape="http://www.inkscape.org/namespaces/inkscape"
   xml:space="preserve"
   width="8in"
   height="8in"
   style="shape-rendering:geometricPrecision; text-rendering:geometricPrecision; image-rendering:optimizeQuality; fill-rule:evenodd; clip-rule:evenodd"
   viewBox="0 0 8000 8000"
   id="svg4177"
   version="1.1"
   inkscape:version="0.91 r"
   sodipodi:docname="dog.svg"><metadata
     id="metadata4189"><rdf:RDF><cc:Work
         rdf:about=""><dc:format>image/svg+xml</dc:format><dc:type
           rdf:resource="http://purl.org/dc/dcmitype/StillImage" /><dc:title></dc:title></cc:Work></rdf:RDF></metadata><sodipodi:namedview
     pagecolor="#ffffff"
     bordercolor="#666666"
     borderopacity="1"
     objecttolerance="10"
     gridtolerance="10"
     guidetolerance="10"
     inkscape:pageopacity="0"
     inkscape:pageshadow="2"
     inkscape:window-width="1920"
     inkscape:window-height="1025"
     id="namedview4187"
     showgrid="false"
     inkscape:zoom="0.32777778"
     inkscape:cx="360"
     inkscape:cy="360"
     inkscape:window-x="0"
     inkscape:window-y="30"
     inkscape:window-maximized="1"
     inkscape:current-layer="svg4177" /><defs
     id="defs4179"><style
       type="text/css"
       id="style4181"><![CDATA[
    .str0 {stroke:black;stroke-linecap:round;stroke-linejoin:round}
    .fil0 {fill:black}
   ]]></style></defs><g
     id="Layer_x0020_1"
     style="fill:#ff7f0e;fill-opacity:1"><metadata
       id="CorelCorpID_0Corel-Layer" /><path
       class="fil0 str0"
       d="M2719 2c-80,19 -164,121 -201,183 -35,60 -107,201 -125,274 -2,8 -5,37 -18,37 -23,0 -33,-70 -37,-83 -58,-173 -34,-244 -46,-297 -13,-61 -72,9 -87,29 -164,214 -78,343 -195,320 -64,-12 -61,-2 -116,-2 -105,-1 -180,-15 -289,48 -62,37 -91,-2 -113,44 -21,41 -83,56 -126,61 -23,2 -41,-19 -63,-24 -287,-58 -280,-89 -530,-174 -71,-24 -129,-46 -142,71 -12,104 1,360 50,447 46,84 171,71 269,141 17,12 125,94 114,122 -4,11 -74,-33 -77,-35 -107,-58 -362,-182 -412,-15 -32,105 61,180 131,239 134,111 183,173 342,255 52,27 111,74 156,114 72,64 52,157 22,241 -37,103 -88,174 -108,281 -11,61 -19,124 -32,187 -24,115 38,46 24,167 -8,76 9,134 27,207 14,56 36,31 49,54 19,32 24,91 59,112 42,25 117,-57 104,78 -3,36 -8,68 -6,104 4,73 -29,113 -46,201 -19,98 -9,129 -20,224 -14,108 14,215 34,320 23,121 56,72 77,90 73,65 91,363 123,449 40,111 5,223 91,355 84,128 76,167 134,282 17,33 62,47 105,209 29,107 24,397 73,448 30,32 43,-5 51,88 10,117 47,154 54,229 10,101 7,202 22,302 12,80 -9,157 -6,236 7,204 26,406 43,610 4,52 -1,104 6,157 10,81 -133,107 -199,182 -47,54 -124,272 -54,318 40,27 124,63 174,47 62,-18 89,-68 160,-40 107,42 216,-31 302,-86 37,-24 26,-59 26,-96 0,-140 -29,-188 -32,-245 -3,-70 62,-75 112,-50 64,31 84,50 155,50 90,0 108,-72 183,-83 151,-23 123,-163 125,-230 2,-98 53,-278 55,-448 2,-150 47,-266 20,-368 -31,-118 33,-191 15,-292 -30,-168 -50,-328 -49,-499 1,-57 -7,-232 -20,-287 -22,-91 -32,-112 113,-80 127,28 132,-47 161,-46 65,1 123,64 162,38 24,-15 48,-1 73,-12 39,-18 85,-61 127,-31 65,45 58,-11 128,14 82,29 111,-111 150,-78 21,18 79,113 109,46 37,-84 46,-3 81,-14 30,-9 -2,-103 50,-73 139,80 106,28 225,22 33,-2 53,30 87,6 60,-41 64,28 144,-46 55,-52 70,83 118,2 21,-34 33,-44 66,-64 55,-33 95,-19 152,0 32,10 34,44 59,61 88,60 164,100 204,206 44,115 48,132 110,244 83,150 213,209 290,388 41,98 67,153 136,235 161,186 372,364 414,621 19,118 75,239 26,356 -32,79 -65,158 -97,238 -43,103 -33,210 -163,242 -212,52 -208,68 -323,266 -24,41 -24,143 67,153 105,12 75,82 261,16 82,-30 120,-50 206,-31 139,31 148,-50 202,-148 55,-100 153,-274 196,-373 39,-88 52,-66 126,-44 60,18 111,-21 170,-18 89,4 132,45 221,-9 25,-15 103,-65 124,-85 123,-118 73,-194 91,-336 25,-186 92,-613 97,-780 6,-209 -60,-170 -80,-275 -14,-77 -101,-177 -135,-261 -73,-180 -127,-217 -49,-428 103,-278 350,-569 255,-917 -8,-30 -14,-59 -28,-86 -29,-55 40,-35 22,-168 -5,-37 -11,-73 -6,-112 9,-65 -28,-109 -49,-166 -23,-60 -30,-125 -69,-177 -54,-73 -90,-145 -161,-206 -48,-41 -65,-71 -104,-106 -32,-30 -89,-58 -76,-109 20,-74 -49,-64 -50,-110 0,-13 61,-85 76,-193 19,-142 26,-86 52,-189 20,-80 -24,-91 50,-144 41,-28 42,-66 0,-90 -43,-25 147,-50 108,-118 -29,-50 31,-56 11,-94 -25,-46 -133,15 -135,-1 -2,-15 157,-118 127,-152 -19,-22 -47,29 -89,-1 -63,-44 -138,-10 -146,-31 -11,-29 132,-113 152,-138 36,-46 -77,-63 -100,-62 -42,2 -63,20 -42,-52 24,-86 -107,-20 -149,-16 -73,7 -16,-151 -11,-183 7,-39 -33,-42 -59,-32 -76,31 -50,-16 -95,-75 -86,-113 -55,125 -133,10 -27,-41 -44,-60 -90,-87 -19,-10 -104,-55 -125,-36 -24,20 30,69 -97,9 -27,-13 -54,-23 -79,-14 -28,10 3,62 -35,67 -18,2 -70,-64 -118,-55 -35,5 -1,160 -95,67 -106,-106 -43,122 -137,48 -85,-67 -54,40 -83,56 -19,10 -60,-4 -81,-2 -79,6 -162,6 -232,49 -14,9 -13,27 6,27 43,1 80,-15 120,9 45,26 -57,26 -108,49 -192,88 -52,69 -22,81 33,14 24,57 -7,69 -77,29 -163,17 -173,31 -31,40 82,80 73,102 -6,14 -83,55 -96,64 -2,1 -130,79 -76,90 38,7 97,-50 186,14 57,41 -100,23 -204,160 -36,47 19,39 39,43 25,4 48,33 81,42 49,13 -74,83 -110,91 -132,31 -413,24 -540,17 -115,-6 -239,-16 -345,-67 -149,-72 -242,-108 -413,-105 -90,2 -205,9 -267,-71 -64,-83 -20,-102 -149,-169 -134,-71 -235,9 -342,-154 -69,-105 26,-60 -4,-132 -18,-41 -68,-103 -64,-144 5,-55 -55,-93 -30,-155 29,-72 -79,-107 -30,-175 45,-63 -70,-159 -54,-262 14,-97 -41,-105 -35,-221 10,-200 -44,-391 -14,-572 7,-43 62,-250 -38,-227zm3259 2223c-97,15 -156,51 -193,145 -32,82 90,5 180,34 37,12 95,62 115,-3 7,-22 16,-87 9,-111 -13,-44 -68,-72 -111,-65zm746 3774c-13,2 -3,51 -3,56 1,72 4,221 18,286 36,163 187,267 99,444 -46,93 -52,97 -86,194 -22,66 39,24 76,17 71,-14 153,16 147,-117 -1,-31 -6,-63 -4,-88 6,-66 -1,-133 0,-199 1,-116 11,-163 -56,-268 -47,-72 -78,-96 -112,-180 -2,-6 -64,-147 -79,-145zm-4140 632c-1,44 1,99 -5,146 -11,95 -2,74 0,148 1,25 -52,89 -22,102 23,10 87,-48 93,-96 11,-102 -38,-193 -47,-294 -1,-11 -2,-22 -3,-33 -1,-8 1,-33 -8,-33 -4,0 -8,5 -8,60z"
       id="path4185"
       style="fill:#ff7f0e;fill-opacity:1" /></g></svg>